<?xml version="1.0" standalone="no"?>
<!DOCTYPE svg PUBLIC "-//W3C//DTD SVG 20010904//EN"
 "http://www.w3.org/TR/2001/REC-SVG-20010904/DTD/svg10.dtd">
<svg version="1.0" xmlns="http://www.w3.org/2000/svg"
 width="260.000000pt" height="260.000000pt" viewBox="0 0 260.000000 260.000000"
 preserveAspectRatio="xMidYMid meet">
<metadata>
Created by potrace 1.11, written by Peter Selinger 2001-2013
</metadata>
<g transform="translate(0.000000,260.000000) scale(0.100000,-0.100000)"
fill="#000000" stroke="none">
<path d="M1700 2454 c-201 -52 -354 -192 -421 -384 -30 -88 -38 -250 -15 -341
52 -204 199 -361 398 -424 64 -20 99 -25 186 -25 182 0 319 54 433 170 117
121 169 252 169 428 0 170 -61 316 -181 433 -58 56 -203 131 -287 148 -73 15
-216 13 -282 -5z m245 -89 c165 -35 294 -135 362 -281 47 -102 60 -184 45
-280 -32 -205 -181 -366 -387 -419 -332 -85 -668 219 -616 555 33 212 192 379
402 425 83 18 110 18 194 0z"/>
<path d="M1585 2069 c-51 -29 -61 -90 -22 -127 30 -29 89 -30 117 -2 25 25 26
80 3 109 -22 25 -71 35 -98 20z"/>
<path d="M2043 2070 c-47 -19 -58 -92 -20 -128 30 -29 89 -30 117 -2 25 25 26
80 3 109 -21 24 -68 35 -100 21z"/>
<path d="M1598 1704 c-16 -8 -28 -20 -28 -27 0 -16 68 -100 102 -127 88 -68
265 -68 358 2 36 27 100 106 100 124 0 11 -48 44 -63 44 -2 0 -16 -18 -31 -40
-80 -121 -288 -120 -372 1 -30 44 -29 44 -66 23z"/>
<path d="M610 1354 c-221 -59 -380 -220 -436 -444 -23 -89 -15 -251 15 -340
64 -186 205 -321 395 -379 83 -26 251 -29 336 -6 100 26 196 81 268 154 117
117 172 253 172 425 0 176 -48 302 -163 423 -78 81 -183 143 -288 168 -80 19
-227 18 -299 -1z m319 -110 c135 -51 224 -132 286 -258 47 -96 63 -193 47
-288 -16 -97 -76 -218 -141 -284 -87 -89 -240 -154 -361 -154 -78 1 -133 15
-226 60 -198 95 -313 325 -271 535 64 314 378 497 666 389z"/>
<path d="M472 947 c-69 -74 32 -179 112 -116 33 26 37 88 6 119 -29 29 -90 27
-118 -3z"/>
<path d="M930 950 c-29 -29 -27 -84 5 -115 51 -52 135 -15 135 60 0 48 -29 75
-80 75 -27 0 -47 -7 -60 -20z"/>
<path d="M674 679 c-53 -15 -127 -72 -161 -123 -18 -26 -33 -51 -33 -55 0 -4
14 -15 32 -25 l31 -19 21 29 c38 54 78 84 132 100 111 32 204 -9 280 -124 5
-8 64 30 64 42 0 21 -54 90 -99 125 -69 55 -180 75 -267 50z"/>
</g>
</svg>
